<svg xmlns="http://www.w3.org/2000/svg" width="280.593" height="50.65" viewBox="0 0 280.593 50.65"><g transform="translate(0.003)"><path d="M58.19,14.91H19.71a3.051,3.051,0,0,1-3.06-3.05h0V3.06A3.051,3.051,0,0,1,19.7,0H58.19a3.051,3.051,0,0,1,3.06,3.05h0v8.82A3.069,3.069,0,0,1,58.19,14.91Z" fill="#000"/><path d="M28.1,11.53,11.37,28.26a2.746,2.746,0,0,1-3.88,0L.8,21.58a2.746,2.746,0,0,1,0-3.88L17.54.96a2.746,2.746,0,0,1,3.88,0L28.1,7.64a2.746,2.746,0,0,1,0,3.88Z" fill="#000"/><path d="M3.09,35.73H41.57a3.051,3.051,0,0,1,3.06,3.05h0v8.81a3.051,3.051,0,0,1-3.05,3.06H3.09A3.077,3.077,0,0,1,.03,47.57V38.76a3.037,3.037,0,0,1,3.06-3.04Z" fill="#000"/><path d="M33.09,39.13,49.82,22.4a2.746,2.746,0,0,1,3.88,0l6.68,6.68a2.746,2.746,0,0,1,0,3.88L43.65,49.69a2.746,2.746,0,0,1-3.88,0l-6.68-6.68A2.746,2.746,0,0,1,33.09,39.13Z" fill="#000"/><path d="M77.79,26.82a14.315,14.315,0,0,1,14.44-14.8c7.6,0,11.88,4.8,13,9.4l-5.2,1.64c-.68-2.72-2.88-5.72-7.8-5.72-4.24,0-8.72,3.04-8.72,9.48,0,6.04,4.24,9.36,8.8,9.36a7.88,7.88,0,0,0,7.96-5.8l5.16,1.56c-1.08,4.36-5.16,9.64-13.12,9.64S77.79,35.86,77.79,26.82Z" fill="#000"/><path d="M128.11,31.14a10.321,10.321,0,1,1-20.64,0,10.321,10.321,0,1,1,20.64,0Zm-5.32,0c0-3.72-2.4-5.6-5-5.6s-5,1.88-5,5.6,2.4,5.6,5,5.6,5-1.88,5-5.6Z" fill="#000"/><path d="M132.31,40.98V21.3h5.08v2.4a6.763,6.763,0,0,1,5.76-2.96,6.089,6.089,0,0,1,5.84,3.28,6.838,6.838,0,0,1,6.24-3.28c3.64,0,7.12,2.2,7.12,7.48V40.98h-5.16V29.3c0-2.12-1.04-3.72-3.48-3.72a3.614,3.614,0,0,0-3.64,3.88V40.98h-5.28V29.3c0-2.12-1.08-3.72-3.48-3.72a3.558,3.558,0,0,0-3.68,3.88V40.98h-5.32Z" fill="#000"/><path d="M167.75,40.98V21.3h5.08v2.4a6.763,6.763,0,0,1,5.76-2.96,6.089,6.089,0,0,1,5.84,3.28,6.838,6.838,0,0,1,6.24-3.28c3.64,0,7.12,2.2,7.12,7.48V40.98h-5.16V29.3c0-2.12-1.04-3.72-3.48-3.72a3.614,3.614,0,0,0-3.64,3.88V40.98h-5.28V29.3c0-2.12-1.08-3.72-3.48-3.72a3.558,3.558,0,0,0-3.68,3.88V40.98h-5.32Z" fill="#000"/><path d="M220.83,35.34c-1,3.4-4.12,6.24-8.96,6.24-5.4,0-10.16-3.88-10.16-10.52,0-6.28,4.64-10.36,9.68-10.36,6.08,0,9.72,3.88,9.72,10.2,0,.76-.08,1.56-.08,1.64H206.95a4.793,4.793,0,0,0,4.96,4.48,4.346,4.346,0,0,0,4.48-3l4.44,1.32Zm-4.96-6.44c-.08-1.96-1.36-3.88-4.4-3.88a4.258,4.258,0,0,0-4.4,3.88h8.8Z" fill="#000"/><path d="M237.31,26.58a8.01,8.01,0,0,0-1.6-.16c-2.72,0-5.08,1.32-5.08,5.56v9h-5.32V21.3h5.16v2.92c1.2-2.6,3.92-3.08,5.6-3.08a12.114,12.114,0,0,1,1.24.08Z" fill="#000"/><path d="M244.71,31.14c0,3.56,2.32,5.56,5.04,5.56a4.5,4.5,0,0,0,4.52-3.32l4.68,1.56a9.137,9.137,0,0,1-9.2,6.64,10.183,10.183,0,0,1-10.36-10.44,10.1,10.1,0,0,1,10.2-10.44c5.36,0,8.4,3.32,9.24,6.64l-4.76,1.6a4.291,4.291,0,0,0-4.36-3.32c-2.64,0-5,1.96-5,5.52Z" fill="#000"/><path d="M280.31,35.34c-1,3.4-4.12,6.24-8.96,6.24-5.4,0-10.16-3.88-10.16-10.52,0-6.28,4.64-10.36,9.68-10.36,6.08,0,9.72,3.88,9.72,10.2,0,.76-.08,1.56-.08,1.64H266.43a4.793,4.793,0,0,0,4.96,4.48,4.346,4.346,0,0,0,4.48-3l4.44,1.32Zm-4.96-6.44c-.08-1.96-1.36-3.88-4.4-3.88a4.258,4.258,0,0,0-4.4,3.88h8.8Z" fill="#000"/></g></svg>