<svg xmlns="http://www.w3.org/2000/svg" width="408.356" height="355.374" viewBox="0 0 408.356 355.374"><g transform="translate(-269.939 -687.805)"><path d="M1691.942,286.531q-1.827.85-3.635,1.753l209.469,209.469q.9-1.809,1.752-3.635Zm-10.847,5.586q-1.712.967-3.405,1.983L1891.96,508.37q1.013-1.693,1.983-3.405L1767.766,378.788Zm-19.671,13.195q-1.5,1.183-2.981,2.407l219.9,219.9q1.224-1.48,2.406-2.982Zm42.12-23.613q-1.952.723-3.891,1.5l203.21,203.209q.777-1.936,1.5-3.89Zm-51.007,31.158q-1.4,1.284-2.783,2.606L1870.6,536.305q1.324-1.379,2.606-2.782Zm18.4-14.468q-1.6,1.078-3.188,2.2L1885.47,518.314q1.122-1.583,2.2-3.188Zm45.028-20.7q-2.09.58-4.166,1.221l195.357,195.357q.639-2.077,1.221-4.167Zm107.089,8.489q-4.593-2.107-9.29-3.9l90.025,90.025q-1.794-4.694-3.9-9.289Zm45.286,31.548a157.376,157.376,0,0,0-18.615-15.922l34.537,34.538A157.249,157.249,0,0,0,1868.337,317.722Zm-70.829-40.657q-3.514-.918-7.059-1.672L1910.666,395.61q-.753-3.545-1.671-7.059Zm-37.938-5.073c-1.789-.019-3.577-.019-5.365.024l159.838,159.838c.042-1.788.043-3.576.024-5.364Zm17.607,1.174c-2-.248-4-.451-6.008-.621l142.346,142.347c-.17-2.006-.373-4.009-.621-6.009Zm-33.416-.55q-2.441.22-4.876.513l174.046,174.046q.3-2.435.512-4.876Zm-14.447,1.988c-1.5.278-3,.572-4.493.895l185.741,185.741c.322-1.494.616-2.992.895-4.493Zm-99.8,64.534q-1.108,1.6-2.174,3.213l216.367,216.368q1.617-1.066,3.213-2.175ZM1602.444,443.53q.3,3.063.726,6.114l133.246,133.246q3.052.421,6.114.726Zm.21-32.657q-.273,2.456-.469,4.919l168.082,168.082q2.463-.195,4.919-.469Zm-.944,15.488c-.021,1.8-.02,3.607.021,5.41l152.559,152.558c1.8.041,3.606.042,5.409.021Zm3.939,36.8q.831,3.629,1.836,7.224L1715.67,578.576q3.593,1,7.223,1.835Zm38.605-142.158q-1.313,1.39-2.585,2.8l220.582,220.582q1.414-1.273,2.8-2.586Zm-31.036,166.162q2.014,4.942,4.38,9.768l71.524,71.524q4.824,2.365,9.768,4.38Zm34.221,51.452q4.735,4.735,9.77,8.971l-18.741-18.741Q1642.712,533.876,1647.437,538.622ZM1623.106,349.16q-1,1.706-1.956,3.432l212.317,212.317q1.726-.955,3.432-1.956Zm-5.728,10.7q-.887,1.823-1.722,3.666L1822.528,570.4q1.843-.837,3.666-1.722Zm19.2-30.1q-1.213,1.491-2.385,3l219.1,219.1q1.513-1.17,3-2.384Zm-31.685,66.914q-.463,2.258-.861,4.526l180.829,180.829q2.268-.395,4.526-.861Zm3.285-13.148q-.624,2.095-1.184,4.2l191.336,191.336q2.108-.563,4.2-1.183Zm4.2-12.229q-.761,1.952-1.47,3.918L1810.841,575.15q1.967-.708,3.918-1.47Z" transform="translate(-1235.784 415.825)" fill="#fff" opacity="0.204"/><path d="M1691.942,286.531q-1.827.85-3.635,1.753l209.469,209.469q.9-1.809,1.752-3.635Zm-10.847,5.586q-1.712.967-3.405,1.983L1891.96,508.37q1.013-1.693,1.983-3.405L1767.766,378.788Zm-19.671,13.195q-1.5,1.183-2.981,2.407l219.9,219.9q1.224-1.48,2.406-2.982Zm42.12-23.613q-1.952.723-3.891,1.5l203.21,203.209q.777-1.936,1.5-3.89Zm-51.007,31.158q-1.4,1.284-2.783,2.606L1870.6,536.305q1.324-1.379,2.606-2.782Zm18.4-14.468q-1.6,1.078-3.188,2.2L1885.47,518.314q1.122-1.583,2.2-3.188Zm45.028-20.7q-2.09.58-4.166,1.221l195.357,195.357q.639-2.077,1.221-4.167Zm107.089,8.489q-4.593-2.107-9.29-3.9l90.025,90.025q-1.794-4.694-3.9-9.289Zm45.286,31.548a157.376,157.376,0,0,0-18.615-15.922l34.537,34.538A157.249,157.249,0,0,0,1868.337,317.722Zm-70.829-40.657q-3.514-.918-7.059-1.672L1910.666,395.61q-.753-3.545-1.671-7.059Zm-37.938-5.073c-1.789-.019-3.577-.019-5.365.024l159.838,159.838c.042-1.788.043-3.576.024-5.364Zm17.607,1.174c-2-.248-4-.451-6.008-.621l142.346,142.347c-.17-2.006-.373-4.009-.621-6.009Zm-33.416-.55q-2.441.22-4.876.513l174.046,174.046q.3-2.435.512-4.876Zm-14.447,1.988c-1.5.278-3,.572-4.493.895l185.741,185.741c.322-1.494.616-2.992.895-4.493Zm-99.8,64.534q-1.108,1.6-2.174,3.213l216.367,216.368q1.617-1.066,3.213-2.175ZM1602.444,443.53q.3,3.063.726,6.114l133.246,133.246q3.052.421,6.114.726Zm.21-32.657q-.273,2.456-.469,4.919l168.082,168.082q2.463-.195,4.919-.469Zm-.944,15.488c-.021,1.8-.02,3.607.021,5.41l152.559,152.558c1.8.041,3.606.042,5.409.021Zm3.939,36.8q.831,3.629,1.836,7.224L1715.67,578.576q3.593,1,7.223,1.835Zm38.605-142.158q-1.313,1.39-2.585,2.8l220.582,220.582q1.414-1.273,2.8-2.586Zm-31.036,166.162q2.014,4.942,4.38,9.768l71.524,71.524q4.824,2.365,9.768,4.38Zm34.221,51.452q4.735,4.735,9.77,8.971l-18.741-18.741Q1642.712,533.876,1647.437,538.622ZM1623.106,349.16q-1,1.706-1.956,3.432l212.317,212.317q1.726-.955,3.432-1.956Zm-5.728,10.7q-.887,1.823-1.722,3.666L1822.528,570.4q1.843-.837,3.666-1.722Zm19.2-30.1q-1.213,1.491-2.385,3l219.1,219.1q1.513-1.17,3-2.384Zm-31.685,66.914q-.463,2.258-.861,4.526l180.829,180.829q2.268-.395,4.526-.861Zm3.285-13.148q-.624,2.095-1.184,4.2l191.336,191.336q2.108-.563,4.2-1.183Zm4.2-12.229q-.761,1.952-1.47,3.918L1810.841,575.15q1.967-.708,3.918-1.47Z" transform="translate(-1331.756 458.815)" fill="#00ff89"/></g></svg>