<svg id="hdl_logo_white" data-name="hdl logo white" xmlns="http://www.w3.org/2000/svg" width="34.658" height="28.065" viewBox="0 0 34.658 28.065">
  <path id="Path_3" data-name="Path 3" d="M60.4,38.544v5.648a1.183,1.183,0,0,1-1.183,1.183H40.507a1.182,1.182,0,0,0-.837.348l-7.617,7.622a1.183,1.183,0,0,1-1.674,0l-4-4a1.183,1.183,0,0,1,0-1.674l8.072-8.067,1.9-1.9a1.185,1.185,0,0,1,.837-.346H59.221A1.183,1.183,0,0,1,60.4,38.543Z" transform="translate(-26.035 -37.36)"/>
  <path id="Path_4" data-name="Path 4" d="M27.75,122.072v-5.648a1.183,1.183,0,0,1,1.183-1.183H47.647a1.182,1.182,0,0,0,.837-.348l7.617-7.622a1.183,1.183,0,0,1,1.674,0l4,4a1.183,1.183,0,0,1,0,1.674l-9.96,9.955a1.18,1.18,0,0,1-.833.346l-6.043.01h-16A1.183,1.183,0,0,1,27.75,122.072Z" transform="translate(-27.461 -95.189)"/>
</svg>
